<svg id="Icons" xmlns="http://www.w3.org/2000/svg" viewBox="0 0 512 512"><defs><style>.cls-1{fill:#0989d8;}.cls-2{fill:#29a3fb;}.cls-3{fill:#6b250c;}.cls-4{fill:#7a2b13;}.cls-5{fill:#dd8c29;}.cls-6{fill:#efb732;}.cls-7{fill:#962a11;}.cls-8{fill:#f9eaa5;}.cls-9{fill:#fad98f;}.cls-10{fill:#f39e22;}.cls-11{fill:#f9c744;}.cls-12{fill:#c44a1a;}.cls-13{fill:#decee5;}.cls-14{fill:#f4e6f4;}.cls-15{fill:#c2aacf;}.cls-16{fill:#fff;}.cls-17{fill:#2e3140;}.cls-18{fill:#334353;}.cls-19{fill:#3e4e60;}.cls-20{fill:#ccfdff;}</style></defs><title>019-beer-export</title><circle class="cls-1" cx="256" cy="256" r="255.98"/><path class="cls-2" d="M0,255.76A255.63,255.63,0,0,1,103.44,50.44c113.54-84.25,273.87-60.52,358.12,53a254.76,254.76,0,0,1,49.93,136,76.89,76.89,0,0,0-14.24,6.88c-23.84,14.74-42,41.9-69.91,44.44-19.15,1.75-37.29-9.24-51.1-22.62s-24.87-29.51-39.4-42.12a112.53,112.53,0,0,0-157.7,10c-14.17,15.89-26.53,37.44-47.68,40-28.75,3.44-51.22-31.63-80-28.95-9.3.87-17.72,5.66-26.73,8A54.5,54.5,0,0,1,0,255.76Z"/><path class="cls-3" d="M269.55,125.29,220,211.15a12.09,12.09,0,0,1-16.51,4.43L168,195.09a12.1,12.1,0,0,1-4.43-16.52l49.58-85.86A16.57,16.57,0,0,1,232,85a8.47,8.47,0,0,0,9.37-3.53l24-36.76-.29-.17a3.66,3.66,0,0,1-.84-5.68l7.44-7.95a3.66,3.66,0,0,1,4.51-.68l16,9.25a3.68,3.68,0,0,1,1.68,4.25l-3.17,10.41a3.67,3.67,0,0,1-5.35,2.11l-.29-.16L265.16,95.26a8.43,8.43,0,0,0,1.63,9.88A16.57,16.57,0,0,1,269.55,125.29Z"/><path class="cls-4" d="M269.55,125.29,220,211.15a12.09,12.09,0,0,1-16.51,4.43l-25.62-14.79a12.1,12.1,0,0,1-4.42-16.52l47.7-82.62a12.47,12.47,0,0,1,17-4.57,8.48,8.48,0,0,0,9.37-3.53l29.2-45.82v0a.14.14,0,0,0-.05-.19,3.8,3.8,0,0,1-.88-5.9l7-7.5,9.33,5.39a3.68,3.68,0,0,1,1.68,4.25l-3.17,10.41a3.67,3.67,0,0,1-5.35,2.11l-.29-.16L265.16,95.26a8.43,8.43,0,0,0,1.63,9.88A16.57,16.57,0,0,1,269.55,125.29Z"/><path class="cls-5" d="M299.69,41.24l-1,1.78a3,3,0,0,1-4.17,1.13l-23.55-13.6a3.06,3.06,0,0,1-1.12-4.18l1-1.78A3.06,3.06,0,0,1,275,23.47l23.55,13.59A3.06,3.06,0,0,1,299.69,41.24Z"/><path class="cls-6" d="M299.69,41.24l-1,1.78a3,3,0,0,1-4.17,1.13L276.67,33.86a3.06,3.06,0,0,1-1.11-4.18l1-1.78a3.05,3.05,0,0,1,4.18-1.12l17.82,10.28A3.06,3.06,0,0,1,299.69,41.24Z"/><ellipse class="cls-7" cx="258.65" cy="109.72" rx="6.07" ry="10.17" transform="translate(-19.59 70.68) rotate(-15)"/><ellipse class="cls-7" cx="258.89" cy="129.37" rx="6.99" ry="4.32" transform="matrix(0.31, -0.95, 0.95, 0.31, 55.04, 334.81)"/><path class="cls-7" d="M173.42,184.3H197.9a3.77,3.77,0,0,1,3.77,3.77v0a3.77,3.77,0,0,1-3.77,3.77H173.42a0,0,0,0,1,0,0V184.3A0,0,0,0,1,173.42,184.3Z" transform="matrix(0.87, 0.5, -0.5, 0.87, 119.16, -68.58)"/><rect class="cls-7" x="203.32" y="197.45" width="14" height="7.54" rx="3.77" transform="translate(128.79 -78.2) rotate(30)"/><path class="cls-7" d="M279.58,60.22h0a3.16,3.16,0,0,1,1.24,4.16L270.61,84.52a3.16,3.16,0,0,1-4.4,1.3l-1.06-.61A3.15,3.15,0,0,1,264,80.9l11.27-19.53A3.15,3.15,0,0,1,279.58,60.22Z"/><polygon class="cls-6" points="257.26 146.59 230.81 192.4 174.38 159.82 200.83 114.01 213.91 114.15 238.21 114.42 257.26 146.59"/><polygon class="cls-5" points="213.91 114.15 184.25 165.52 174.38 159.82 200.83 114.01 213.91 114.15"/><path class="cls-8" d="M251.16,157.15l-11.22-6.47c1.49-8.87-2.12-17.82-9.81-22.26s-17.25-3.09-24.18,2.63l-11.22-6.47-8.64,15L197.31,146c-1.5,8.87,2.11,17.82,9.81,22.26s17.24,3.09,24.18-2.64l11.22,6.48Z"/><rect class="cls-9" x="189.64" y="126.27" width="11.4" height="17.28" transform="translate(93.63 -79.6) rotate(30)"/><ellipse class="cls-10" cx="218.62" cy="148.35" rx="16.68" ry="15.35" transform="matrix(0.5, -0.87, 0.87, 0.5, -19.16, 263.51)"/><ellipse class="cls-11" cx="218.62" cy="148.35" rx="12.45" ry="11.46" transform="translate(-19.16 263.51) rotate(-60)"/><rect class="cls-12" x="214.94" y="141.86" width="12.73" height="3.38" rx="1.69" transform="translate(101.43 -91.42) rotate(30)"/><rect class="cls-12" x="207.72" y="147.14" width="21.09" height="3.38" rx="1.69" transform="translate(103.65 -89.19) rotate(30)"/><path class="cls-3" d="M331.25,166.23l-49.58,85.86a12.08,12.08,0,0,1-16.51,4.43L229.67,236a12.08,12.08,0,0,1-4.42-16.51l49.57-85.87A16.57,16.57,0,0,1,293.65,126a8.46,8.46,0,0,0,9.37-3.52l24-36.77-.3-.17a3.67,3.67,0,0,1-.84-5.68l7.44-8a3.68,3.68,0,0,1,4.51-.68l16,9.25a3.68,3.68,0,0,1,1.68,4.25l-3.17,10.42A3.67,3.67,0,0,1,347,97.23l-.29-.17L326.85,136.2a8.42,8.42,0,0,0-.8,5.21,8.51,8.51,0,0,0,2.43,4.67A16.58,16.58,0,0,1,331.25,166.23Z"/><path class="cls-4" d="M331.25,166.23l-49.58,85.86a12.08,12.08,0,0,1-16.51,4.43l-25.62-14.79a12.08,12.08,0,0,1-4.42-16.51l47.7-82.63a12.47,12.47,0,0,1,17-4.57,8.45,8.45,0,0,0,9.37-3.52l29.2-45.83h0a.16.16,0,0,0-.06-.2,3.8,3.8,0,0,1-.88-5.9l7-7.49,9.33,5.38a3.68,3.68,0,0,1,1.68,4.25l-3.17,10.42A3.67,3.67,0,0,1,347,97.23l-.29-.17L326.85,136.2a8.42,8.42,0,0,0-.8,5.21,8.51,8.51,0,0,0,2.43,4.67A16.58,16.58,0,0,1,331.25,166.23Z"/><rect class="cls-5" x="342.36" y="58.09" width="8.18" height="33.31" rx="3.06" transform="translate(108.49 337.4) rotate(-60)"/><path class="cls-6" d="M361.38,82.19l-1,1.77a3.06,3.06,0,0,1-4.18,1.13L338.36,74.8a3.05,3.05,0,0,1-1.11-4.18l1-1.78a3.07,3.07,0,0,1,4.18-1.12L360.27,78A3.05,3.05,0,0,1,361.38,82.19Z"/><ellipse class="cls-7" cx="320.34" cy="150.67" rx="6.07" ry="10.17" transform="translate(-28.08 88.04) rotate(-15)"/><ellipse class="cls-7" cx="320.58" cy="170.32" rx="6.99" ry="4.32" transform="translate(58.55 421.55) rotate(-71.78)"/><path class="cls-7" d="M235.11,225.24h24.48a3.77,3.77,0,0,1,3.77,3.77v0a3.77,3.77,0,0,1-3.77,3.77H235.11a0,0,0,0,1,0,0v-7.54a0,0,0,0,1,0,0Z" transform="translate(147.9 -93.94) rotate(30)"/><rect class="cls-7" x="265.01" y="238.39" width="14" height="7.54" rx="3.77" transform="translate(157.52 -103.56) rotate(30)"/><path class="cls-7" d="M341.27,101.16h0a3.16,3.16,0,0,1,1.24,4.16L332.3,125.46a3.16,3.16,0,0,1-4.39,1.31l-1.07-.62a3.15,3.15,0,0,1-1.15-4.31L337,102.32A3.16,3.16,0,0,1,341.27,101.16Z"/><polygon class="cls-6" points="318.95 187.53 292.5 233.34 236.07 200.76 262.52 154.95 275.61 155.1 299.9 155.36 318.95 187.53"/><polygon class="cls-5" points="275.61 155.1 245.95 206.47 236.07 200.76 262.52 154.95 275.61 155.1"/><path class="cls-8" d="M312.85,198.1l-11.22-6.48c1.49-8.87-2.12-17.82-9.81-22.26s-17.25-3.09-24.18,2.64l-11.22-6.48-8.64,15L259,187c-1.49,8.87,2.11,17.82,9.81,22.26s17.24,3.09,24.18-2.63l11.22,6.47Z"/><rect class="cls-9" x="251.34" y="167.21" width="11.4" height="17.28" transform="translate(122.36 -104.96) rotate(30)"/><ellipse class="cls-10" cx="280.31" cy="189.29" rx="16.68" ry="15.35" transform="translate(-23.77 337.4) rotate(-60)"/><ellipse class="cls-11" cx="280.31" cy="189.29" rx="12.45" ry="11.46" transform="translate(-23.77 337.4) rotate(-60)"/><rect class="cls-12" x="276.63" y="182.81" width="12.73" height="3.38" rx="1.69" transform="translate(130.16 -116.78) rotate(30)"/><rect class="cls-12" x="269.41" y="188.08" width="21.09" height="3.38" rx="1.69" transform="translate(132.39 -114.55) rotate(30)"/><path class="cls-13" d="M359.48,197.68l-2.72,26.6-18.12,177.3a36.58,36.58,0,0,1-36.39,32.85H193.73a36.59,36.59,0,0,1-36.4-32.85l-18.11-177.3-2.72-26.6Z"/><path class="cls-14" d="M359.48,197.68l-20.84,203.9a36.58,36.58,0,0,1-36.39,32.85H222.46a36.58,36.58,0,0,1-36.4-32.85l-20.84-203.9Z"/><polygon class="cls-15" points="359.48 197.68 356.76 224.28 139.22 224.28 136.5 197.68 359.48 197.68"/><ellipse class="cls-16" cx="314.01" cy="272.52" rx="32.08" ry="17.91" transform="matrix(0.09, -1, 1, 0.09, 14.31, 560.71)"/><ellipse class="cls-16" cx="307.59" cy="339.61" rx="24.54" ry="11.56" transform="translate(-58.35 615.36) rotate(-84.83)"/><path class="cls-13" d="M376.11,185.16a12.53,12.53,0,0,1-12.52,12.52H132.4a12.53,12.53,0,1,1,0-25.05H363.59A12.52,12.52,0,0,1,376.11,185.16Z"/><path class="cls-14" d="M276.72,178.89h0a6.26,6.26,0,0,1-6.26,6.26H154.35a6.26,6.26,0,0,1-6.26-6.26h0a6.26,6.26,0,0,1,6.26-6.26H270.46A6.26,6.26,0,0,1,276.72,178.89Z"/><path class="cls-14" d="M343.72,178.89h0a6.26,6.26,0,0,1-6.26,6.26H295.84a6.26,6.26,0,0,1-6.26-6.26h0a6.26,6.26,0,0,1,6.26-6.26h41.62A6.26,6.26,0,0,1,343.72,178.89Z"/><path class="cls-17" d="M71.9,355.78a15.29,15.29,0,0,0,2.64,3.52c3.56,3.57,8.12,4.77,12.68,4.77,7.36,0,14.74-3.12,18-4.5,10.7-4.51,24.18-12.49,40-23.72,1.65-1.16,3.32-2.36,5-3.58,29.14-21.17,63.42-50.87,97.74-84.68q3.21-3.15,6.41-6.36l-12.56-12.56-.27-.27c-32.27,32.26-65.12,61.36-93.47,82.85q-4,3-7.79,5.81C106,342.1,92.17,345.52,88,345.88a32.06,32.06,0,0,1,2.32-8.47c3.12-8,10.28-21.62,26.51-43.87,7.63-10.46,16.41-21.61,26.1-33.23l-2.55-25-4.94,5.73C121,257.88,108.34,274,98,288.59c-11.22,15.87-19.2,29.34-23.72,40C72.3,333.3,66.77,346.38,71.9,355.78Z"/><path class="cls-18" d="M71.9,355.78a18.81,18.81,0,0,0,9.17,2.14c7.36,0,14.74-3.12,18-4.5,10.69-4.51,24.17-12.48,40-23.71,1.64-1.17,3.31-2.36,5-3.59,29.14-21.17,63.42-50.87,97.74-84.67q3.21-3.16,6.41-6.37l-6.41-6.41-.27-.27c-32.27,32.26-65.12,61.36-93.47,82.85q-4,3-7.79,5.81C106,342.1,92.17,345.52,88,345.88a32.06,32.06,0,0,1,2.32-8.47l-.13,0a4.69,4.69,0,0,1-6.05-6.08c3.09-8,10.24-21.63,26.55-44C116,280,122,272.23,128.5,264.21a31.69,31.69,0,0,0,6.9-23.16h0C121,257.88,108.34,274,98,288.59c-11.22,15.87-19.2,29.34-23.72,40C72.3,333.3,66.77,346.38,71.9,355.78Z"/><path class="cls-18" d="M229.1,228.4v12.83a12.48,12.48,0,0,0,12.47,12.47H254.4a12.48,12.48,0,0,0,12.47-12.47V228.4c0-.36,0-.72,0-1.07a12.48,12.48,0,0,0-12.43-11.4H241.57a12.47,12.47,0,0,0-12.42,11.4A9.47,9.47,0,0,0,229.1,228.4Z"/><path class="cls-19" d="M229.15,227.33a12.47,12.47,0,0,0,12.42,11.39H254.4a11.44,11.44,0,1,0,0-22.79H241.57A12.47,12.47,0,0,0,229.15,227.33Z"/><path class="cls-17" d="M237.45,231.24v7.15a7,7,0,0,0,7,7h7.15a7,7,0,0,0,7-7v-7.15a5.91,5.91,0,0,0,0-.6,7,7,0,0,0-6.94-6.36h-7.15a7,7,0,0,0-6.93,6.36A5.88,5.88,0,0,0,237.45,231.24Z"/><path class="cls-20" d="M194.39,155h19.1a7,7,0,0,1,7,7v10.59a0,0,0,0,1,0,0H187.36a0,0,0,0,1,0,0V162A7,7,0,0,1,194.39,155Z"/><path class="cls-16" d="M142.08,172.63l20-20a10.53,10.53,0,0,1,14.9,0l20,20Z"/><path class="cls-16" d="M212.41,172.63l15.26-15.26a8,8,0,0,1,11.36,0l15.26,15.26Z"/><path class="cls-20" d="M283.8,149.51h33a8.73,8.73,0,0,1,8.73,8.73v14.39a0,0,0,0,1,0,0H275.06a0,0,0,0,1,0,0V158.24A8.73,8.73,0,0,1,283.8,149.51Z"/><path class="cls-16" d="M314,172.63l15.27-15.26a8,8,0,0,1,11.35,0l15.27,15.26Z"/></svg>